<?xml version="1.0" encoding="UTF-8"?>
<svg id="Layer_2" xmlns="http://www.w3.org/2000/svg" version="1.1" viewBox="0 0 1080 1080">
  <!-- Generator: Adobe Illustrator 29.5.0, SVG Export Plug-In . SVG Version: 2.1.0 Build 137)  -->
  <defs>
    <style>
      .st0 {
        fill: #1fbf77;
      }
    </style>
  </defs>
  <path class="st0" d="M501.74,433.14l-151.13,262.02-1.45,2.52-.16.28-8.8,15.24-12.71,22.01-4.89,8.47-152.5,263.95c-16.7-9.9-30.92-23.51-40.82-40.83l-47.63-82.26-66.8-115.67c-9.9-17.32-14.85-36.5-14.85-55.67.01-19.54,5.13-38.73,14.85-55.67L323.04,123.64l178.7,309.5Z"/>
  <polygon class="st0" points="340.21 713.2 327.49 735.21 340.2 713.2 340.21 713.2"/>
  <polygon class="st0" points="340.2 713.2 349 697.96 340.21 713.2 340.2 713.2"/>
  <path class="st0" d="M1080,713.2c0,19.17-4.95,38.35-14.85,55.67l-94.63,163.91-19.8,34.02c-9.9,17.32-24.12,30.93-40.82,40.83-16.7,9.28-35.88,14.84-55.67,14.84H238.17l178.55-309.27h663.28Z"/>
  <path class="st0" d="M1058.44,646.92h-356.88l-80.62-139.78.03-.02-38.03-65.87-42.94-74.45-67.74-117.25-102.31-177.21c16.69-9.26,35.84-14.81,55.62-14.81h228.86c19.8,0,38.97,4.94,55.67,14.84,16.7,9.9,30.93,23.51,40.83,40.83l157.11,272.16,150.4,261.56Z"/>
  <path class="st0" d="M472.26,249.55l-102.36-177.18s.03-.02.05-.03l102.31,177.21Z"/>
  <polygon class="st0" points="582.94 441.25 620.97 507.12 620.94 507.14 582.94 441.25"/>
</svg>