<?xml version="1.0" encoding="UTF-8"?>
<svg id="Layer_1" xmlns="http://www.w3.org/2000/svg" version="1.1" viewBox="0 0 1080 1080">
  <!-- Generator: Adobe Illustrator 29.5.0, SVG Export Plug-In . SVG Version: 2.1.0 Build 137)  -->
  <defs>
    <style>
      .st0 {
        fill: #fff;
      }
    </style>
  </defs>
  <path class="st0" d="M91.12,580.35c4.46,51.87,19.03,102.43,40.46,149.6l82.65-48.05c-5.74-15.39-11.63-30.7-16-46.6-48.81-177.66,46.07-363.23,217.98-426.89,44.2-16.37,91.06-23.74,138.29-22.45l-16.83,91.85c-160.46,1.59-282.27,144.86-257.43,304.12,1.06,6.79,10.1,49.34,14.72,50.41l103.22-61.97-29.78-81.81c.02-1.15,12.83-15.29,14.93-17.55,26.55-28.69,56.25-56.24,83.61-84.3l119.86-26.05,4.89.93,33.02,42.23c-4.48,4.69-8.5,9.78-12.89,14.53-8.38,9.07-42.32,42.28-42.32,42.28,0,0-36.92,9.9-50.03,16.35l-36.56,37.68,17.12,47.94,34.27,37.39,3.57.97,49.1-13.53,35.61-38.58,75.63-24.3c1.59.38,2.48,3.14,3.22,4.56,5.02,9.7,16.36,33.66,19.12,43.41.52,1.82,1.11,3.42-.06,5.19l-73.6,90.46-8.69,6.93-129.63,40.43-61.4-66.25-104.82,63.23c52.69,62.87,137.05,95.39,218.5,89.29l23.55,89.58c-121.97,16.66-245.82-35.05-322.37-129.96l-81.03,46.78c-1.55,2.25,8.29,13.57,10.4,16.18,177.48,219.66,518.26,213.93,695.01-3.91,21.06-25.95,38.05-54.64,54.26-83.79l88.96,31.13c-62.91,136.11-182.62,241.39-325.71,286.69-223.91,70.88-466.04-9.39-602.86-198.34C42.64,775.54,8.45,679.79,0,580.35h91.11Z"/>
  <path class="st0" d="M2.61,484.03C17.55,316.78,117.87,162.36,261.23,76.87,519.81-77.33,853,7.94,1005.09,265.78c73.03,123.81,93.95,274.04,57.04,413.5l-89.81-31.28c14.72-57.86,17.43-119.35,7.8-178.3l-88.37,23.56c-1.46,1.7,2.35,30.64,2.53,35.61.83,23.34-1.82,50.62-5.88,73.63-20.63,116.89-102.43,220.34-212.83,264.2l-23.31-88.94c11.83-7.44,24.4-13.48,35.95-21.41,97.89-67.17,138.75-193.15,98.01-305.54-26.28-72.5-83.5-129.78-155.66-156.75l16.38-91.19c98.65,30.98,180.53,105.58,219.92,201.22l89.88-23.57c-33.7-89.06-96-165.67-175.86-217.24-155.12-100.18-357.36-94.7-506.64,13.8-99.74,72.49-166.57,183.92-181.82,306.95H2.61Z"/>
</svg>