<?xml version="1.0" encoding="UTF-8"?>
<svg id="Layer_1" data-name="Layer 1" xmlns="http://www.w3.org/2000/svg" viewBox="0 0 694.66 182.21">
  <defs>
    <style>
      .cls-1 {
        fill: #fff;
      }

      .cls-2 {
        fill: red;
      }
    </style>
  </defs>
  <path class="cls-1" d="M184.03,5.18h5.18V0h25.92v10.37h-20.74v5.18h15.55v5.18h5.18v15.55h-5.18v5.18h-25.92v-10.37h20.74v-5.18h-15.55v-5.18h-5.18V5.18Z"/>
  <path class="cls-1" d="M220.32,0h31.1v10.37h-10.37v31.1h-10.37V10.37h-10.37V0Z"/>
  <path class="cls-1" d="M266.98,41.47h-10.37V5.18h5.18V0h20.74v5.18h5.18v36.29h-10.37v-15.55h-10.37v15.55ZM277.34,15.55v-5.18h-10.37v5.18h10.37Z"/>
  <path class="cls-1" d="M292.9,0h31.1v10.37h-10.37v31.1h-10.37V10.37h-10.37V0Z"/>
  <path class="cls-1" d="M334.37,36.29h-5.18V5.18h5.18V0h25.92v10.37h-20.74v5.18h10.37v10.37h-10.37v5.18h20.74v10.37h-25.92v-5.18Z"/>
  <path class="cls-1" d="M365.47,5.18h5.18V0h25.92v10.37h-20.74v5.18h15.55v5.18h5.18v15.55h-5.18v5.18h-25.92v-10.37h20.74v-5.18h-15.55v-5.18h-5.18V5.18Z"/>
  <path class="cls-1" d="M438.05,5.18h5.18V0h20.74v5.18h5.18v31.1h-5.18v5.18h-20.74v-5.18h-5.18V5.18ZM448.42,31.1h10.37V10.37h-10.37v20.74Z"/>
  <path class="cls-1" d="M484.7,41.47h-10.37V5.18h5.18V0h25.92v10.37h-20.74v5.18h10.37v10.37h-10.37v15.55Z"/>
  <path class="cls-1" d="M0,88.9h10.37v-10.37h51.84v20.74H20.74v10.37h31.1v10.37h10.37v31.1h-10.37v10.37H0v-20.74h41.47v-10.37H10.37v-10.37H0v-31.1Z"/>
  <path class="cls-1" d="M186.62,99.26h-10.37v62.21h-20.74v-72.58h10.37v-10.37h62.21v10.37h10.37v72.58h-20.74v-62.21h-10.37v62.21h-20.74v-62.21Z"/>
  <path class="cls-1" d="M259.2,151.1h-10.37v-62.21h10.37v-10.37h51.84v20.74h-41.47v10.37h20.74v20.74h-20.74v10.37h41.47v20.74h-51.84v-10.37Z"/>
  <path class="cls-1" d="M321.41,78.53h20.74v62.21h10.37v-62.21h20.74v62.21h10.37v-62.21h20.74v72.58h-10.37v10.37h-62.21v-10.37h-10.37v-72.58Z"/>
  <path class="cls-1" d="M435.46,161.47h-20.74v-82.94h20.74v31.1h20.74v-31.1h20.74v82.94h-20.74v-31.1h-20.74v31.1Z"/>
  <path class="cls-1" d="M497.66,151.1h-10.37v-62.21h10.37v-10.37h51.84v20.74h-41.47v10.37h20.74v20.74h-20.74v10.37h41.47v20.74h-51.84v-10.37Z"/>
  <path class="cls-1" d="M590.98,130.37h-10.37v31.1h-20.74v-72.58h10.37v-10.37h41.47v10.37h10.37v31.1h-10.37v10.37h10.37v31.1h-20.74v-20.74h-10.37v-10.37ZM580.61,109.63h20.74v-10.37h-20.74v10.37Z"/>
  <path class="cls-1" d="M642.82,151.1h-10.37v-62.21h10.37v-10.37h51.84v20.74h-41.47v10.37h20.74v20.74h-20.74v10.37h41.47v20.74h-51.84v-10.37Z"/>
  <rect class="cls-2" x="93.31" y="161.47" width="10.37" height="10.37"/>
  <rect class="cls-2" x="103.68" y="161.47" width="10.37" height="10.37"/>
  <rect class="cls-2" x="103.68" y="171.84" width="10.37" height="10.37"/>
  <rect class="cls-2" x="114.05" y="161.47" width="10.37" height="10.37"/>
  <rect class="cls-2" x="103.68" y="151.1" width="10.37" height="10.37"/>
  <rect class="cls-2" x="103.68" y="140.74" width="10.37" height="10.37"/>
  <rect class="cls-2" x="114.05" y="130.37" width="10.37" height="10.37"/>
  <rect class="cls-2" x="103.68" y="130.37" width="10.37" height="10.37"/>
  <rect class="cls-1" x="93.31" y="99.26" width="31.1" height="31.1"/>
  <rect class="cls-2" x="93.31" y="130.37" width="10.37" height="10.37"/>
  <rect class="cls-2" x="103.68" y="88.9" width="10.37" height="10.37"/>
  <rect class="cls-2" x="103.68" y="78.53" width="10.37" height="10.37"/>
  <polygon class="cls-2" points="82.94 88.9 72.58 88.9 72.58 151.1 82.94 151.1 82.94 161.47 103.68 161.47 103.68 140.74 93.31 140.74 93.31 99.26 103.68 99.26 103.68 78.53 82.94 78.53 82.94 88.9"/>
  <polygon class="cls-2" points="134.78 88.9 145.15 88.9 145.15 151.1 134.78 151.1 134.78 161.47 114.05 161.47 114.05 140.74 124.42 140.74 124.42 99.26 114.05 99.26 114.05 78.53 134.78 78.53 134.78 88.9"/>
</svg>