<svg xmlns="http://www.w3.org/2000/svg" version="1.1" viewBox="-5.0 -10.0 110.0 135.0">
 <path d="m61.875 83.25h-23.398c-2.6211 0-4.75-2.125-4.75-4.75v-3.7812c0-0.69922-0.32812-1.3438-0.91797-1.8125-7.082-5.5859-11.309-14.051-11.309-22.641 0-15.859 12.785-28.766 28.5-28.766s28.5 12.906 28.5 28.766c0 8.8984-3.9922 17.148-10.957 22.641-0.59375 0.46875-0.91797 1.1133-0.91797 1.8125v3.7812c0 2.625-2.125 4.75-4.75 4.75zm-7.125-71.25v-4.75c0-2.6211-2.1289-4.75-4.75-4.75s-4.75 2.1289-4.75 4.75v4.75c0 2.6211 2.1289 4.75 4.75 4.75s4.75-2.1289 4.75-4.75zm-21.375 9.2031c2.2695-1.3125 3.0508-4.2188 1.7383-6.4883l-2.375-4.1133c-1.3164-2.2695-4.2188-3.0508-6.4883-1.7383s-3.0508 4.2188-1.7383 6.4883l2.375 4.1133c0.88281 1.5234 2.4766 2.375 4.1172 2.375 0.80469 0 1.6211-0.20312 2.3711-0.63672zm-12.168 12.172c1.3086-2.2734 0.53125-5.1758-1.7383-6.4883l-4.1133-2.375c-2.2812-1.3125-5.1758-0.53125-6.4883 1.7383-1.3086 2.2734-0.53125 5.1758 1.7383 6.4883l4.1133 2.375c0.75 0.42969 1.5664 0.63672 2.3711 0.63672 1.6406 0 3.2344-0.85156 4.1172-2.375zm51.906-13.91 2.375-4.1133c1.3125-2.2734 0.53125-5.1758-1.7383-6.4883s-5.1758-0.53125-6.4883 1.7383l-2.375 4.1133c-1.3125 2.2734-0.53125 5.1758 1.7383 6.4883 0.74609 0.42969 1.5625 0.63672 2.3711 0.63672 1.6406 0 3.2383-0.85156 4.1172-2.375zm12.168 15.648 4.1133-2.375c2.2734-1.3125 3.0508-4.2188 1.7383-6.4883-1.3164-2.2734-4.2266-3.0547-6.4883-1.7383l-4.1133 2.375c-2.2734 1.3125-3.0508 4.2188-1.7383 6.4883 0.88281 1.5234 2.4766 2.375 4.1172 2.375 0.80859 0 1.625-0.20312 2.3711-0.63672zm-21.031 57.637c0-2.625-2.125-4.75-4.75-4.75h-19c-2.6211 0-4.75 2.125-4.75 4.75s2.1289 4.75 4.75 4.75h19c2.625 0 4.75-2.125 4.75-4.75z" fill="#fff"/></svg>